<?xml version="1.0" encoding="UTF-8" standalone="no"?>
<svg
   xmlns:dc="http://purl.org/dc/elements/1.1/"
   xmlns:cc="http://creativecommons.org/ns#"
   xmlns:rdf="http://www.w3.org/1999/02/22-rdf-syntax-ns#"
   xmlns:svg="http://www.w3.org/2000/svg"
   xmlns="http://www.w3.org/2000/svg"
   xmlns:sodipodi="http://sodipodi.sourceforge.net/DTD/sodipodi-0.dtd"
   xmlns:inkscape="http://www.inkscape.org/namespaces/inkscape"
   width="8.8549995mm"
   height="3.664mm"
   viewBox="0 0 8.8549998 3.664"
   version="1.1"
   id="svg116"
   inkscape:version="1.0.1 (3bc2e813f5, 2020-09-07)"
   sodipodi:docname="Shout_logo.svg">
  <defs
     id="defs110" />
  <sodipodi:namedview
     id="base"
     pagecolor="#ffffff"
     bordercolor="#666666"
     borderopacity="1.0"
     inkscape:pageopacity="0.0"
     inkscape:pageshadow="2"
     inkscape:zoom="16"
     inkscape:cx="14.1095"
     inkscape:cy="7.2545676"
     inkscape:document-units="mm"
     inkscape:current-layer="layer1"
     inkscape:document-rotation="0"
     showgrid="false"
     units="mm"
     width="61mm"
     inkscape:window-width="1366"
     inkscape:window-height="714"
     inkscape:window-x="0"
     inkscape:window-y="0"
     inkscape:window-maximized="1" />
  <metadata
     id="metadata113">
    <rdf:RDF>
      <cc:Work
         rdf:about="">
        <dc:format>image/svg+xml</dc:format>
        <dc:type
           rdf:resource="http://purl.org/dc/dcmitype/StillImage" />
        <dc:title></dc:title>
      </cc:Work>
    </rdf:RDF>
  </metadata>
  <g
     inkscape:label="Layer 1"
     inkscape:groupmode="layer"
     id="layer1">
    <g
       id="g222"
       transform="translate(-47.806498,-146.70699)">
      <path
         style="fill:#000000;fill-opacity:1;fill-rule:evenodd;stroke:none;stroke-width:0.264583px;stroke-linecap:butt;stroke-linejoin:miter;stroke-opacity:1"
         d="m 49.785635,147.24673 0.305289,-0.27476 c 0,0 -0.340906,-0.25949 -0.803927,-0.26458 -0.46302,-0.005 -1.300371,0.17436 -1.333093,1.05833 -0.03272,0.89415 1.696704,1.03815 1.719792,1.70962 0.01698,0.21031 -0.02372,0.30868 -0.122115,0.3867 -0.321019,0.15138 -0.796019,-0.0458 -0.9871,-0.10176 l -0.457932,0.11193 c 0.2867,0.25305 0.535078,0.47556 1.037981,0.49864 0.492725,0.0231 1.480863,-0.2851 1.485737,-1.19062 0.0049,-0.90553 -1.713761,-1.34525 -1.841907,-1.48574 -0.322528,-0.30616 0.155876,-0.56815 0.498637,-0.56987 0.332585,-0.002 0.498638,0.12211 0.498638,0.12211 z"
         id="path2161" />
      <path
         style="opacity:1;fill:#000000;fill-opacity:1;fill-rule:nonzero;stroke:none;stroke-width:0.551426;stroke-linecap:round;stroke-linejoin:round;stroke-miterlimit:4;stroke-dasharray:none;stroke-dashoffset:0;stroke-opacity:1"
         d="m 48.839243,149.42445 a 0.51390225,0.5088141 0 0 1 -0.513903,0.50882 0.51390225,0.5088141 0 0 1 -0.513902,-0.50882 0.51390225,0.5088141 0 0 1 0.513902,-0.50881 0.51390225,0.5088141 0 0 1 0.513903,0.50881 z"
         id="path3134" />
      <path
         style="opacity:1;fill:#000000;fill-opacity:1;fill-rule:nonzero;stroke:none;stroke-width:0.551426;stroke-linecap:round;stroke-linejoin:round;stroke-miterlimit:4;stroke-dasharray:none;stroke-dashoffset:0;stroke-opacity:1"
         d="m 50.538679,147.47061 a 0.51390225,0.5088141 0 0 1 -0.513903,0.50882 0.51390225,0.5088141 0 0 1 -0.513902,-0.50882 0.51390225,0.5088141 0 0 1 0.513902,-0.50881 0.51390225,0.5088141 0 0 1 0.513903,0.50881 z"
         id="path3136" />
      <path
         d="m 51.993874,149.83321 v -0.97428 q 0,-0.17915 -0.07304,-0.26872 -0.07166,-0.0896 -0.225999,-0.0896 -0.111622,0 -0.187414,0.0358 -0.07579,0.0358 -0.122646,0.10611 -0.04548,0.0703 -0.06615,0.17225 -0.01929,0.10198 -0.01929,0.23427 v 0.78411 h -0.250804 v -2.14424 h 0.250804 v 0.63666 l -0.01102,0.19844 h 0.01378 q 0.03445,-0.0593 0.0813,-0.10198 0.04823,-0.0441 0.104732,-0.073 0.0565,-0.0289 0.119889,-0.0427 0.06339,-0.0138 0.129536,-0.0138 0.252182,0 0.378962,0.13229 0.128158,0.13091 0.128158,0.4203 v 0.98806 z"
         style="font-style:normal;font-variant:normal;font-weight:normal;font-stretch:normal;font-size:2.82223px;line-height:1.25;font-family:'Droid Sans';-inkscape-font-specification:'Droid Sans';letter-spacing:0px;stroke-width:0.264583"
         id="path191" />
      <path
         d="m 53.943803,149.07391 q 0,0.18879 -0.04685,0.33624 -0.04547,0.14607 -0.132292,0.24667 -0.08544,0.0992 -0.208084,0.15158 -0.122646,0.0524 -0.275609,0.0524 -0.141938,0 -0.261828,-0.0524 -0.119889,-0.0524 -0.208084,-0.15158 -0.08682,-0.1006 -0.136426,-0.24667 -0.04823,-0.14745 -0.04823,-0.33624 0,-0.18742 0.04548,-0.33211 0.04685,-0.14608 0.132292,-0.24529 0.08544,-0.1006 0.208084,-0.15159 0.124024,-0.0524 0.276987,-0.0524 0.141938,0 0.261828,0.0524 0.119889,0.051 0.206706,0.15159 0.08819,0.0992 0.136426,0.24529 0.04961,0.14469 0.04961,0.33211 z m -1.058336,0 q 0,0.28801 0.09371,0.43408 0.09508,0.14469 0.307303,0.14469 0.212219,0 0.304548,-0.14469 0.09371,-0.14607 0.09371,-0.43408 0,-0.28802 -0.09508,-0.42995 -0.09371,-0.14332 -0.305926,-0.14332 -0.212218,0 -0.305925,0.14332 -0.09233,0.14193 -0.09233,0.42995 z"
         style="font-style:normal;font-variant:normal;font-weight:normal;font-stretch:normal;font-size:2.82223px;line-height:1.25;font-family:'Droid Sans';-inkscape-font-specification:'Droid Sans';letter-spacing:0px;stroke-width:0.264583"
         id="path193" />
      <path
         d="m 55.319089,149.83321 -0.03721,-0.20258 h -0.01378 q -0.03445,0.0593 -0.08268,0.10336 -0.04685,0.0427 -0.103353,0.0717 -0.0565,0.0276 -0.11989,0.0413 -0.06339,0.0138 -0.129536,0.0138 -0.125401,0 -0.220486,-0.0317 -0.09508,-0.0317 -0.158475,-0.0992 -0.06339,-0.0675 -0.09646,-0.17225 -0.03169,-0.10473 -0.03169,-0.24943 v -0.98805 h 0.250804 v 0.97427 q 0,0.17915 0.07304,0.26872 0.07304,0.0896 0.225999,0.0896 0.111621,0 0.187414,-0.0358 0.07579,-0.0358 0.121267,-0.10473 0.04685,-0.0703 0.06615,-0.17225 0.02067,-0.10198 0.02067,-0.23427 v -0.78548 h 0.250804 v 1.51309 z"
         style="font-style:normal;font-variant:normal;font-weight:normal;font-stretch:normal;font-size:2.82223px;line-height:1.25;font-family:'Droid Sans';-inkscape-font-specification:'Droid Sans';letter-spacing:0px;stroke-width:0.264583"
         id="path195" />
      <path
         d="m 56.458731,149.65544 q 0.0248,0 0.05512,-0.003 0.03169,-0.003 0.06063,-0.007 0.02894,-0.004 0.05237,-0.01 0.0248,-0.006 0.03721,-0.01 v 0.19017 q -0.01792,0.008 -0.04548,0.0165 -0.02756,0.008 -0.06063,0.0138 -0.03307,0.007 -0.0689,0.01 -0.03583,0.004 -0.07028,0.004 -0.08544,0 -0.158475,-0.0221 -0.07304,-0.0221 -0.126779,-0.0758 -0.05237,-0.0538 -0.08268,-0.1447 -0.03032,-0.0923 -0.03032,-0.23151 v -0.87781 h -0.213596 v -0.11162 l 0.213596,-0.10749 0.107487,-0.31695 h 0.144695 v 0.34727 h 0.380339 v 0.18879 h -0.380339 v 0.87781 q 0,0.13367 0.04272,0.20119 0.0441,0.0675 0.143317,0.0675 z"
         style="font-style:normal;font-variant:normal;font-weight:normal;font-stretch:normal;font-size:2.82223px;line-height:1.25;font-family:'Droid Sans';-inkscape-font-specification:'Droid Sans';letter-spacing:0px;stroke-width:0.264583"
         id="path197" />
      <path
         style="opacity:1;fill:#000000;fill-opacity:1;fill-rule:nonzero;stroke:none;stroke-width:0.138784;stroke-linecap:round;stroke-linejoin:round;stroke-miterlimit:4;stroke-dasharray:none;stroke-dashoffset:0;stroke-opacity:1"
         d="m 53.429754,149.0672 a 0.13218491,0.12530234 0 0 1 -0.132185,0.1253 0.13218491,0.12530234 0 0 1 -0.132185,-0.1253 0.13218491,0.12530234 0 0 1 0.132185,-0.1253 0.13218491,0.12530234 0 0 1 0.132185,0.1253 z"
         id="path3134-5" />
    </g>
  </g>
</svg>
